<?xml version="1.0" encoding="UTF-8" standalone="no"?>
<!-- Created with Inkscape (http://www.inkscape.org/) -->

<svg
   width="342.33282"
   height="218.31363"
   viewBox="0 0 90.575558 57.762148"
   version="1.1"
   id="svg5"
   xml:space="preserve"
   xmlns="http://www.w3.org/2000/svg"
   xmlns:svg="http://www.w3.org/2000/svg"><defs
     id="defs2"><rect
       x="192.83675"
       y="153.38448"
       width="882.8255"
       height="268.14563"
       id="rect2968" /></defs><g
     id="layer1"
     transform="translate(-194.85572,-12.5)"><rect
       style="opacity:0;fill:#262626;fill-opacity:1;stroke-width:0.628779"
       id="rect40791"
       width="83.416672"
       height="83.416672"
       x="131.18007"
       y="69.774666" /><g
       aria-label="ther 
pps"
       transform="matrix(0.2457432,0,0,0.2457432,192.63443,-28.439061)"
       id="text2966"
       style="font-size:96px;font-family:Impact;-inkscape-font-specification:Impact;white-space:pre;shape-inside:url(#rect2968);display:inline;fill:#4300f1;stroke-width:2"><path
         d="m 217.63281,244.26608 q 1.92188,0 3.9375,-0.32813 2.01563,-0.32812 3.28125,-0.79687 v 6.04687 q -1.35937,0.60938 -3.79687,1.03125 -2.39063,0.42188 -4.6875,0.42188 -4.07813,0 -7.40625,-1.40625 -3.32813,-1.45313 -5.34375,-4.875 -1.96875,-3.42188 -1.96875,-9.46875 v -30.46875 h -7.3125 v -3.79688 l 7.35937,-3.04687 3.09375,-11.15625 h 4.6875 v 11.90625 h 15.04688 v 6.09375 h -15.04688 v 30.23437 q 0,4.82813 2.20313,7.21875 2.25,2.39063 5.95312,2.39063 z"
         style="font-family:'Open Sans';-inkscape-font-specification:'Open Sans'"
         id="path888" /><path
         d="m 243.03906,176.76608 v 21.79687 q 0,1.875 -0.0937,3.79688 -0.0937,1.875 -0.32812,3.46875 h 0.51562 q 1.59375,-2.71875 4.03125,-4.54688 2.48438,-1.875 5.625,-2.8125 3.14063,-0.98437 6.65625,-0.98437 6.1875,0 10.3125,1.96875 4.17188,1.96875 6.23438,6.09375 2.10937,4.125 2.10937,10.6875 v 33.46875 h -7.6875 v -32.95313 q 0,-6.42187 -2.95312,-9.60937 -2.90625,-3.1875 -8.95313,-3.1875 -5.71875,0 -9.14062,2.20312 -3.375,2.15625 -4.875,6.375 -1.45313,4.21875 -1.45313,10.3125 v 26.85938 h -7.78125 v -72.9375 z"
         style="font-family:'Open Sans';-inkscape-font-specification:'Open Sans'"
         id="path885" /><path
         d="m 313.91406,197.39108 q 6.5625,0 11.25,2.90625 4.6875,2.90625 7.17188,8.15625 2.48437,5.20312 2.48437,12.1875 v 4.82812 h -35.48437 q 0.14062,9.04688 4.5,13.78125 4.35937,4.73438 12.28125,4.73438 4.875,0 8.625,-0.89063 3.75,-0.89062 7.78125,-2.625 v 6.84375 q -3.89063,1.73438 -7.73438,2.53125 -3.79687,0.79688 -9,0.79688 -7.40625,0 -12.9375,-3 -5.48437,-3.04688 -8.53125,-8.90625 -3.04687,-5.85938 -3.04687,-14.34375 0,-8.29688 2.76562,-14.34375 2.8125,-6.09375 7.875,-9.375 5.10938,-3.28125 12,-3.28125 z m -0.0937,6.375 q -6.23437,0 -9.9375,4.07812 -3.70312,4.07813 -4.40625,11.39063 h 27.1875 q -0.0469,-4.59375 -1.45312,-8.0625 -1.35938,-3.51563 -4.17188,-5.4375 -2.8125,-1.96875 -7.21875,-1.96875 z"
         style="font-family:'Open Sans';-inkscape-font-specification:'Open Sans'"
         id="path882" /><path
         d="m 371.38281,197.39108 q 1.54688,0 3.23438,0.1875 1.6875,0.14062 3,0.42187 l -0.98438,7.21875 q -1.26562,-0.32812 -2.8125,-0.51562 -1.54687,-0.1875 -2.90625,-0.1875 -3.09375,0 -5.85937,1.26562 -2.71875,1.21875 -4.78125,3.5625 -2.0625,2.29688 -3.23438,5.57813 -1.17187,3.23437 -1.17187,7.21875 v 27.5625 h -7.82813 v -51.375 h 6.46875 l 0.84375,9.46875 h 0.32813 q 1.59375,-2.85938 3.84375,-5.20313 2.25,-2.39062 5.20312,-3.79687 3,-1.40625 6.65625,-1.40625 z"
         style="font-family:'Open Sans';-inkscape-font-specification:'Open Sans'"
         id="path879" /><path
         d="m 225.17969,326.36245 q 9.60937,0 15.32812,6.60937 5.71875,6.60938 5.71875,19.875 0,8.76563 -2.625,14.71875 -2.625,5.95313 -7.40625,9 -4.73437,3.04688 -11.20312,3.04688 -4.07813,0 -7.17188,-1.07813 -3.09375,-1.07812 -5.29687,-2.90625 -2.20313,-1.82812 -3.65625,-3.98437 h -0.5625 q 0.14062,1.82812 0.32812,4.40625 0.23438,2.57812 0.23438,4.5 v 21.09375 h -7.82813 v -74.34375 h 6.42188 l 1.03125,7.59375 h 0.375 q 1.5,-2.34375 3.65625,-4.26563 2.15625,-1.96875 5.25,-3.09375 3.14062,-1.17187 7.40625,-1.17187 z m -1.35938,6.5625 q -5.34375,0 -8.625,2.0625 -3.23437,2.0625 -4.73437,6.1875 -1.5,4.07812 -1.59375,10.26562 v 1.5 q 0,6.51563 1.40625,11.01563 1.45312,4.5 4.73437,6.84375 3.32813,2.34375 8.90625,2.34375 4.78125,0 7.96875,-2.57813 3.1875,-2.57812 4.73438,-7.17187 1.59375,-4.64063 1.59375,-10.64063 0,-9.09375 -3.5625,-14.4375 -3.51563,-5.39062 -10.82813,-5.39062 z"
         style="font-family:'Open Sans';-inkscape-font-specification:'Open Sans'"
         id="path876" /><path
         d="m 283.91406,326.36245 q 9.60938,0 15.32813,6.60937 5.71875,6.60938 5.71875,19.875 0,8.76563 -2.625,14.71875 -2.625,5.95313 -7.40625,9 -4.73438,3.04688 -11.20313,3.04688 -4.07812,0 -7.17187,-1.07813 -3.09375,-1.07812 -5.29688,-2.90625 -2.20312,-1.82812 -3.65625,-3.98437 h -0.5625 q 0.14063,1.82812 0.32813,4.40625 0.23437,2.57812 0.23437,4.5 v 21.09375 h -7.82812 v -74.34375 h 6.42187 l 1.03125,7.59375 h 0.375 q 1.5,-2.34375 3.65625,-4.26563 2.15625,-1.96875 5.25,-3.09375 3.14063,-1.17187 7.40625,-1.17187 z m -1.35937,6.5625 q -5.34375,0 -8.625,2.0625 -3.23438,2.0625 -4.73438,6.1875 -1.5,4.07812 -1.59375,10.26562 v 1.5 q 0,6.51563 1.40625,11.01563 1.45313,4.5 4.73438,6.84375 3.32812,2.34375 8.90625,2.34375 4.78125,0 7.96875,-2.57813 3.1875,-2.57812 4.73437,-7.17187 1.59375,-4.64063 1.59375,-10.64063 0,-9.09375 -3.5625,-14.4375 -3.51562,-5.39062 -10.82812,-5.39062 z"
         style="font-family:'Open Sans';-inkscape-font-specification:'Open Sans'"
         id="path873" /><path
         d="m 351.74219,364.61245 q 0,4.92187 -2.48438,8.29687 -2.4375,3.32813 -7.03125,5.01563 -4.54687,1.6875 -10.875,1.6875 -5.39062,0 -9.32812,-0.84375 -3.9375,-0.84375 -6.89063,-2.39063 v -7.17187 q 3.14063,1.54687 7.5,2.8125 4.35938,1.26562 8.90625,1.26562 6.65625,0 9.65625,-2.15625 3,-2.15625 3,-5.85937 0,-2.10938 -1.21875,-3.70313 -1.17187,-1.64062 -3.98437,-3.14062 -2.8125,-1.54688 -7.78125,-3.375 -4.92188,-1.875 -8.53125,-3.70313 -3.5625,-1.875 -5.53125,-4.54687 -1.92188,-2.67188 -1.92188,-6.9375 0,-6.51563 5.25,-9.98438 5.29688,-3.51562 13.875,-3.51562 4.64063,0 8.67188,0.9375 4.07812,0.89062 7.59375,2.4375 l -2.625,6.23437 q -3.1875,-1.35937 -6.79688,-2.29687 -3.60937,-0.9375 -7.35937,-0.9375 -5.39063,0 -8.29688,1.78125 -2.85937,1.78125 -2.85937,4.875 0,2.39062 1.3125,3.9375 1.35937,1.54687 4.3125,2.90625 2.95312,1.35937 7.78125,3.1875 4.82812,1.78125 8.34375,3.70312 3.51562,1.875 5.39062,4.59375 1.92188,2.67188 1.92188,6.89063 z"
         style="font-family:'Open Sans';-inkscape-font-specification:'Open Sans'"
         id="path870" /></g><g
       id="g57602"
       style="fill:#4300f1;fill-opacity:1"
       transform="translate(-73.612166,-2.4999995)"><g
         id="g22489"
         transform="translate(125.57369,-32.5)"
         style="fill:#4300f1;fill-opacity:1"><path
           style="fill:#4300f1;fill-opacity:1;stroke-width:0.529167"
           d="m 155.88457,90 v 5 l -4.33013,-2.5 V 57.499999 L 168.87495,47.5 181.86533,55 v 35 l -4.33012,2.5 v -35 l -8.66026,-5 -12.99038,7.5 z"
           id="path20258" /><path
           style="fill:#4300f1;fill-opacity:1;stroke-width:0.529167"
           d="m 168.87495,62.5 v -5 l 4.33013,2.5 v 35 l -17.32052,10 -12.99037,-7.500001 V 62.5 l 4.33011,-2.500001 v 35 l 8.66026,5 L 168.87495,92.5 Z"
           id="path20258-3" /></g><path
         style="opacity:1;fill:#4300f1;fill-opacity:1;stroke-width:0.529167"
         d="m 285.78839,39.999999 4.33012,-2.5 V 47.5 l -4.33012,2.5 z"
         id="path57596" /></g></g></svg>
